HIERARCHY
ROOT Hips
{
	OFFSET 0.00000 0.00000 0.00000
	CHANNELS 6 Xposition Yposition Zposition Zrotation Yrotation Xrotation 
	JOINT LHipJoint
	{
		OFFSET 0 0 0
		CHANNELS 3 Zrotation Yrotation Xrotation
		JOINT LeftHip
		{
			OFFSET 1.62329 -1.80800 0.67318
			CHANNELS 3 Zrotation Yrotation Xrotation
			JOINT LeftKnee
			{
				OFFSET 2.57139 -7.06484 0.00000
				CHANNELS 3 Zrotation Yrotation Xrotation
				JOINT LeftAnkle
				{
					OFFSET 2.52017 -6.92413 0.00000
					CHANNELS 3 Zrotation Yrotation Xrotation
					JOINT LeftToe
					{
						OFFSET 0.23295 -0.64001 2.10214
						CHANNELS 3 Zrotation Yrotation Xrotation
						End Site
						{
							OFFSET 0.00000 -0.00000 1.10139
						}
					}
				}
			}
		}
	}
	JOINT RHipJoint
	{
		OFFSET 0 0 0
		CHANNELS 3 Zrotation Yrotation Xrotation
		JOINT RightHip
		{
			OFFSET -1.48061 -1.80800 0.67318
			CHANNELS 3 Zrotation Yrotation Xrotation
			JOINT RightKnee
			{
				OFFSET -2.63258 -7.23296 0.00000
				CHANNELS 3 Zrotation Yrotation Xrotation
				JOINT RightAnkle
				{
					OFFSET -2.54779 -7.00000 0.00000
					CHANNELS 3 Zrotation Yrotation Xrotation
					JOINT RightToe
					{
						OFFSET -0.23067 -0.63376 2.12161
						CHANNELS 3 Zrotation Yrotation Xrotation
						End Site
						{
							OFFSET -0.00000 -0.00000 1.11000
						}
					}
				}
			}
		}
	}
	JOINT lowerback
	{
		OFFSET 0 0 0
		CHANNELS 3 Zrotation Yrotation Xrotation
		JOINT Chest
		{
			OFFSET -0.02108 2.07573 -0.16981
			CHANNELS 3 Zrotation Yrotation Xrotation
			JOINT Chest2
			{
				OFFSET 0.05070 2.08439 -0.03141
				CHANNELS 3 Zrotation Yrotation Xrotation
				JOINT lowerneck
				{
					OFFSET 0 0 0
					CHANNELS 3 Zrotation Yrotation Xrotation
					JOINT Neck
					{
						OFFSET -0.10731 1.60408 0.31370
						CHANNELS 3 Zrotation Yrotation Xrotation
						JOINT Head
						{
							OFFSET 0.08411 1.65679 -0.30822
							CHANNELS 3 Zrotation Yrotation Xrotation
							End Site
							{
								OFFSET 0.03911 1.69149 -0.14146
							}
						}
					}
				}
				JOINT LeftCollar
				{
					OFFSET 0 0 0
					CHANNELS 3 Zrotation Yrotation Xrotation
					JOINT LeftShoulder
					{
						OFFSET 3.52315 0.73219 -0.54694
CHANNELS 3 Zrotation Xrotation Yrotation
						JOINT LeftElbow
						{
OFFSET 0 -5.324620 -0.000000
CHANNELS 3 Zrotation Xrotation Yrotation
							JOINT LeftWrist
							{
OFFSET 0 -3.484020 -0.000000
CHANNELS 3 Zrotation Xrotation Yrotation
								JOINT lhand
								{
									OFFSET 0 0 0
CHANNELS 3 Zrotation Xrotation Yrotation
									JOINT LFingers
									{
OFFSET 0 -0.572480 -0.000000
CHANNELS 3 Zrotation Xrotation Yrotation
										End Site
										{
OFFSET 0 -0.461540 -0.000000
										}
									}
								}
								JOINT LThumb
								{
OFFSET 0 0.000000 0.000000
CHANNELS 3 Zrotation Xrotation Yrotation
									End Site
									{
OFFSET 0 -0.468590 0.468590
									}
								}
							}
						}
					}
				}
				JOINT RightCollar
				{
					OFFSET 0 0 0
					CHANNELS 3 Zrotation Yrotation Xrotation
					JOINT RightShoulder
					{
						OFFSET -3.41766 0.93592 -0.10019
CHANNELS 3 Zrotation Xrotation Yrotation
						JOINT RightElbow
						{
OFFSET 0 -5.335890 -0.000000
CHANNELS 3 Zrotation Xrotation Yrotation
							JOINT RightWrist
							{
OFFSET 0 -3.641340 -0.000000
CHANNELS 3 Zrotation Xrotation Yrotation
								JOINT rhand
								{
									OFFSET 0 0 0
CHANNELS 3 Zrotation Xrotation Yrotation
									JOINT RFingers
									{
OFFSET 0 -0.734810 -0.000000
CHANNELS 3 Zrotation Xrotation Yrotation
										End Site
										{
OFFSET 0 -0.592420 -0.000000
										}
									}
								}
								JOINT RThumb
								{
OFFSET 0 0.000000 0.000000
CHANNELS 3 Zrotation Xrotation Yrotation
									End Site
									{
OFFSET 0 -0.601470 0.601470
									}
								}
							}
						}
					}
				}
			}
		}
	}
}
MOTION
Frames: 11
Frame Time: 0.008333333333333333
3.061500 17.348900 -3.579900 3.279900 -39.206600 3.958200 0.000000 0.000000 0.000000 -18.403200 -6.308800 -11.082500 3.214100 11.033800 32.393800 1.430000 1.346200 -23.122000 0.602700 -4.969300 -13.821100 0.000000 0.000000 0.000000 12.233600 11.408200 -16.638200 -5.106100 -13.502300 41.279000 -1.658900 10.165100 -23.143200 -0.141600 2.425500 -6.683100 -7.051400 -0.982600 2.122000 1.894400 -1.462400 0.044500 5.973100 -0.698300 -0.919700 -11.947200 -3.578500 -18.648400 5.572400 -2.931100 22.784600 3.568400 -1.744200 10.695000 -0.000000 0.000000 0.000000 1.290900 0.438400 -46.487600 109.652600 -58.489100 76.933300 17.046400 10.827500 -16.133700 0.000000 0.000000 0.000000 -7.125000 0.000000 0.000000 -10.139400 46.559300 0.394100 -0.000000 0.000000 0.000000 -5.332800 7.158900 34.894900 -120.666200 -56.129800 -86.212600 -24.434200 7.409000 -19.131400 0.000000 0.000000 0.000000 7.125000 0.000000 -0.000000 2.462200 9.137500 2.041900
3.054200 17.348369 -3.568629 3.324005 -39.225573 3.997276 0.000000 0.000000 0.000000 -18.458282 -6.342374 -11.102241 3.218597 11.040747 32.417424 1.432679 1.444804 -23.182706 0.599934 -4.958335 -13.789804 0.000000 0.000000 0.000000 12.199438 11.534469 -16.600503 -5.100962 -13.496528 41.256945 -1.668437 10.102429 -23.203975 -0.137603 2.389612 -6.583831 -7.178246 -0.992944 2.119903 1.877500 -1.481321 -0.039654 6.029361 -0.701326 -1.000191 -12.029037 -3.513746 -18.389636 5.720528 -2.886554 22.663981 3.641455 -1.713858 10.599771 0.000000 0.000000 0.000000 1.355402 0.574043 -46.444352 109.782510 -58.468393 77.044070 17.082852 10.782423 -16.109785 0.000000 0.000000 0.000000 -7.125000 0.000000 0.000000 -10.099073 46.539636 0.387567 0.000000 0.000000 0.000000 -5.348149 7.356606 34.993924 -120.919096 -56.060016 -86.422485 -24.148208 7.343043 -19.161279 0.000000 0.000000 0.000000 7.125000 0.000000 0.000000 2.649944 9.150791 2.197183
3.050326 17.348367 -3.558491 3.023098 -39.156049 4.214827 0.000000 0.000000 0.000000 -18.211133 -6.504937 -11.110273 3.241756 11.076568 32.538484 1.437791 1.523773 -23.254739 0.605743 -4.981489 -13.855884 0.000000 0.000000 0.000000 12.460212 11.485428 -16.561863 -5.082142 -13.475705 41.176290 -1.670051 10.075819 -23.213772 -0.142297 2.430646 -6.697306 -6.873767 -1.009820 2.020312 1.859302 -1.487723 0.040812 5.833009 -0.713667 -0.867790 -12.076690 -3.545903 -18.445536 5.937642 -2.962380 22.565710 3.716072 -1.722793 10.585105 0.000000 0.000000 0.000000 1.487536 0.401253 -46.510236 109.793680 -58.466632 77.053582 17.314904 10.562808 -16.125668 0.000000 0.000000 0.000000 -7.125000 0.000000 0.000000 -9.888562 46.586252 0.390843 0.000000 0.000000 0.000000 -5.147277 7.133099 34.916880 -120.767049 -56.102024 -86.296359 -23.847713 7.654834 -19.105830 0.000000 0.000000 0.000000 7.125000 0.000000 0.000000 2.839343 9.257205 2.348578
3.047291 17.350195 -3.549684 3.006146 -39.266544 4.242605 0.000000 0.000000 0.000000 -18.233663 -6.598306 -11.011682 3.228100 11.055401 32.467104 1.447016 1.621868 -23.367369 0.571027 -4.839627 -13.451602 0.000000 0.000000 0.000000 12.459941 11.630330 -16.516015 -5.071947 -13.464342 41.132474 -1.677697 10.095652 -23.267629 -0.128799 2.313380 -6.372655 -6.865142 -1.004342 1.993565 1.862493 -1.477899 0.060458 5.830370 -0.710722 -0.834047 -12.115410 -3.487306 -18.485861 5.903934 -2.855257 22.613931 3.726923 -1.682001 10.599764 0.000000 0.000000 0.000000 1.424033 0.406663 -46.486428 109.832313 -58.460417 77.086537 17.855453 10.800618 -16.340372 0.000000 0.000000 0.000000 -7.125000 0.000000 0.000000 -9.444978 46.877543 0.441447 0.000000 0.000000 0.000000 -5.234124 7.153767 35.104786 -120.869282 -56.073839 -86.381183 -23.941112 7.629144 -19.058990 0.000000 0.000000 0.000000 7.125000 0.000000 0.000000 2.774663 9.292566 2.292894
3.044640 17.349112 -3.541421 2.825205 -39.300879 4.496840 0.000000 0.000000 0.000000 -18.067949 -6.452570 -11.245106 3.248096 11.086163 32.571092 1.460281 1.528243 -23.433154 0.610337 -5.000021 -13.908626 0.000000 0.000000 0.000000 12.583384 11.676204 -16.496088 -5.019709 -13.405895 40.907562 -1.677328 10.211436 -23.273150 -0.108960 2.127630 -5.858414 -6.744594 -1.015915 1.832295 1.841043 -1.477842 0.148508 5.733933 -0.720583 -0.655750 -11.693540 -3.507460 -18.881077 5.572508 -2.872609 22.687605 3.532894 -1.688801 10.691566 0.000000 0.000000 0.000000 1.549945 0.197511 -46.390532 109.918724 -58.446467 77.160139 17.507053 10.572505 -16.216226 0.000000 0.000000 0.000000 -7.125000 0.000000 0.000000 -9.735136 46.704181 0.413242 0.000000 0.000000 0.000000 -5.075616 6.893147 35.003517 -120.869258 -56.073826 -86.381188 -23.758350 7.601971 -19.259798 0.000000 0.000000 0.000000 7.125000 0.000000 0.000000 2.911150 9.106702 2.416875
3.049229 17.340061 -3.527328 2.554384 -39.055403 4.728819 0.000000 0.000000 0.000000 -17.846053 -6.306038 -11.430986 3.267906 11.116543 32.673929 1.515840 1.245730 -23.751083 0.590280 -4.918785 -13.677039 0.000000 0.000000 0.000000 12.779603 11.446368 -16.413778 -4.966815 -13.346266 40.679054 -1.673742 10.326906 -23.257260 -0.109304 2.131682 -5.869770 -6.661960 -1.082350 1.995008 2.002271 -1.574584 0.151810 5.861846 -0.766810 -0.726965 -11.544115 -3.535520 -19.196707 5.320226 -2.850198 22.752088 3.418839 -1.693007 10.767797 0.000000 0.000000 0.000000 1.236884 0.247841 -46.382910 110.071212 -58.421690 77.290065 17.092364 10.455244 -16.178312 0.000000 0.000000 0.000000 -7.125000 0.000000 0.000000 -10.109168 46.610682 0.405932 0.000000 0.000000 0.000000 -5.075418 6.626331 34.753788 -120.728934 -56.112528 -86.264683 -23.371481 7.963126 -19.271296 0.000000 0.000000 0.000000 7.125000 0.000000 0.000000 3.162277 9.154435 2.622992
3.078861 17.310664 -3.493171 2.026280 -38.811474 5.121043 0.000000 0.000000 0.000000 -17.358863 -5.352535 -12.276712 3.411292 11.332824 33.410711 1.598659 0.127077 -23.973366 0.600085 -4.958926 -13.791413 0.000000 0.000000 0.000000 13.045211 11.190283 -16.549967 -4.995860 -13.379107 40.804757 -1.715228 10.565969 -23.558425 -0.111930 2.157215 -5.940305 -6.078624 -1.099443 2.247036 2.151591 -1.599959 0.056361 5.694649 -0.769895 -0.975037 -11.530159 -3.576248 -19.001348 5.191438 -2.898886 22.574574 3.358955 -1.727370 10.668815 0.000000 0.000000 0.000000 1.035724 0.457800 -46.698797 109.949668 -58.441442 77.186472 17.414384 10.667129 -16.151638 0.000000 0.000000 0.000000 -7.125000 0.000000 0.000000 -9.803474 46.626018 0.397145 0.000000 0.000000 0.000000 -5.551188 6.833661 34.912799 -120.898098 -56.065846 -86.405156 -24.194255 7.211474 -19.131133 0.000000 0.000000 0.000000 7.125000 0.000000 0.000000 2.617360 9.175864 2.168854
3.135609 17.252704 -3.406323 1.560744 -38.750381 5.243469 0.000000 0.000000 0.000000 -17.086700 -3.823988 -13.482150 3.750798 11.821120 35.102277 1.742190 -2.174536 -24.368959 0.600712 -4.961546 -13.798819 0.000000 0.000000 0.000000 13.093723 11.271620 -16.450528 -5.132011 -13.530944 41.389933 -1.782881 11.192505 -24.064619 -0.052213 1.462392 -4.022246 -5.582094 -1.066617 2.487188 2.380361 -1.553621 0.116544 5.655884 -0.747873 -1.060938 -11.513677 -3.538046 -18.804557 5.142914 -2.853608 22.239393 3.339890 -1.704318 10.503541 0.000000 0.000000 0.000000 0.924474 0.417116 -47.095905 109.572235 -58.501929 76.864792 17.382621 10.489920 -15.984542 0.000000 0.000000 0.000000 -7.125000 0.000000 0.000000 -9.787469 46.451137 0.353946 0.000000 0.000000 0.000000 -5.797033 6.811726 34.655297 -120.080383 -56.288475 -85.725843 -24.008746 6.719752 -18.854482 0.000000 0.000000 0.000000 7.125000 0.000000 0.000000 2.712329 9.500864 2.229974
3.218134 17.187467 -3.237045 1.816657 -37.861785 4.255248 0.000000 0.000000 0.000000 -17.742178 -3.389915 -12.981397 3.910897 12.040879 35.876850 1.808702 -3.734801 -24.518226 0.428878 -4.201955 -11.645687 0.000000 0.000000 0.000000 12.560045 10.540302 -15.539453 -5.307944 -13.722442 42.136829 -1.954565 11.368744 -25.191431 -0.052786 1.482778 -4.078275 -5.568766 -1.200174 3.299028 2.506314 -1.770666 0.241418 5.807920 -0.850311 -1.353658 -11.729395 -3.377311 -18.924577 5.577740 -2.649524 22.026202 3.560979 -1.569133 10.436227 0.000000 0.000000 0.000000 0.463887 0.662500 -47.754442 109.649810 -58.489576 76.930923 16.936078 10.503738 -15.916655 0.000000 0.000000 0.000000 -7.125000 0.000000 0.000000 -10.181677 46.323907 0.336047 0.000000 0.000000 0.000000 -6.355265 7.124291 34.827134 -119.070211 -56.552627 -84.884176 -24.224882 6.034687 -18.490368 0.000000 0.000000 0.000000 7.125000 0.000000 0.000000 2.539074 9.857617 2.068988
3.309912 17.157004 -2.985794 2.284118 -37.297652 3.765243 0.000000 0.000000 0.000000 -18.947152 -3.081736 -12.790320 4.060258 12.240203 36.586940 1.867760 -4.548237 -24.799424 0.480189 -4.443532 -12.327963 0.000000 0.000000 0.000000 11.519504 10.463169 -14.641483 -5.366780 -13.785326 42.384354 -2.037239 10.785620 -25.672499 -0.144462 2.449088 -6.748622 -5.768530 -1.196915 2.937519 2.494893 -1.754868 0.209961 5.899157 -0.846343 -1.180052 -11.890658 -3.430064 -19.149574 5.755829 -2.677200 21.734068 3.642748 -1.562031 10.379947 0.000000 0.000000 0.000000 0.248565 1.022099 -48.128986 112.695955 -57.961235 79.520737 15.539804 8.078963 -16.173995 0.000000 0.000000 0.000000 -7.125000 0.000000 0.000000 -11.541521 46.403875 0.405142 0.000000 0.000000 0.000000 -6.195464 8.110643 35.160627 -122.535390 -55.595421 -87.759791 -22.134205 2.586407 -17.772130 0.000000 0.000000 0.000000 7.125000 0.000000 0.000000 3.849409 10.926371 3.057080
3.458041 17.171554 -2.723984 3.115698 -37.495581 3.233741 0.000000 0.000000 0.000000 -20.622703 -2.854787 -12.248051 3.998389 12.158207 36.293934 1.750778 -5.338016 -23.875562 0.394059 -4.029765 -11.160502 0.000000 0.000000 0.000000 9.412365 10.193347 -16.494055 -6.318328 -14.728957 46.244502 -1.604599 10.702427 -22.811682 -0.208279 2.938363 -8.107234 -6.061776 -0.958530 2.832778 2.091583 -1.441309 0.386383 5.627658 -0.699477 -0.987079 -11.596090 -3.440108 -19.768735 5.604904 -2.623866 20.707054 3.526486 -1.493059 10.111798 0.000000 0.000000 0.000000 0.788085 0.008783 -46.735787 121.879366 -55.786032 87.217464 12.308420 3.337636 -14.836831 0.000000 0.000000 0.000000 -7.125000 0.000000 0.000000 -14.080351 44.677502 -0.114794 0.000000 0.000000 0.000000 -5.144799 7.747164 36.149505 -133.360640 -51.543459 -96.483410 -21.201203 -1.005216 -18.451318 0.000000 0.000000 0.000000 7.125000 0.000000 0.000000 4.508789 10.336984 3.638140
